<mxfile host="app.diagrams.net" modified="2024-04-13T17:39:27.416Z" agent="Mozilla/5.0 (Windows NT 10.0; Win64; x64; rv:109.0) Gecko/20100101 Firefox/115.0" version="24.2.5" etag="gxum-Q2RjQlh6Ye-U-50" type="github">
  <diagram name="Page-1" id="v57eT9W9nWVLSXmYuIBD">
    <mxGraphModel>
      <root>
        <mxCell id="0" />
        <mxCell id="1" parent="0" />
      </root>
    </mxGraphModel>
  </diagram>
</mxfile>
